<svg width="16" height="16" viewBox="0 0 16 16" fill="none" xmlns="http://www.w3.org/2000/svg">
<path d="M14 1.33331H10C9.82319 1.33331 9.65362 1.40355 9.5286 1.52858C9.40358 1.6536 9.33334 1.82317 9.33334 1.99998C9.33334 2.17679 9.40358 2.34636 9.5286 2.47138C9.65362 2.59641 9.82319 2.66665 10 2.66665H12.3907L6.862 8.19531C6.79833 8.25681 6.74754 8.33037 6.7126 8.41171C6.67766 8.49305 6.65927 8.58053 6.6585 8.66905C6.65773 8.75757 6.6746 8.84535 6.70812 8.92728C6.74164 9.00921 6.79115 9.08365 6.85374 9.14624C6.91634 9.20884 6.99077 9.25834 7.0727 9.29186C7.15463 9.32538 7.24242 9.34225 7.33094 9.34148C7.41946 9.34071 7.50694 9.32232 7.58827 9.28738C7.66961 9.25244 7.74317 9.20165 7.80467 9.13798L13.3333 3.60931V5.99998C13.3333 6.17679 13.4036 6.34636 13.5286 6.47138C13.6536 6.59641 13.8232 6.66665 14 6.66665C14.1768 6.66665 14.3464 6.59641 14.4714 6.47138C14.5964 6.34636 14.6667 6.17679 14.6667 5.99998V1.99998C14.6667 1.82317 14.5964 1.6536 14.4714 1.52858C14.3464 1.40355 14.1768 1.33331 14 1.33331Z" fill="#55A3AE"/>
<path d="M12.6667 7.05867C12.4899 7.05867 12.3203 7.12891 12.1953 7.25393C12.0702 7.37896 12 7.54853 12 7.72534V12.5007C11.9998 12.7215 11.912 12.9331 11.7559 13.0893C11.5998 13.2454 11.3881 13.3332 11.1673 13.3333H3.49934C3.27856 13.3332 3.06687 13.2454 2.91075 13.0893C2.75464 12.9331 2.66685 12.7215 2.66668 12.5007V4.83267C2.66685 4.61189 2.75464 4.4002 2.91075 4.24408C3.06687 4.08797 3.27856 4.00018 3.49934 4.00001H7.64734C7.82415 4.00001 7.99372 3.92977 8.11875 3.80474C8.24377 3.67972 8.31401 3.51015 8.31401 3.33334C8.31401 3.15653 8.24377 2.98696 8.11875 2.86193C7.99372 2.73691 7.82415 2.66667 7.64734 2.66667H3.49934C2.9251 2.66738 2.37458 2.89581 1.96853 3.30186C1.56248 3.70791 1.33405 4.25843 1.33334 4.83267V12.4993C1.3337 13.0738 1.56197 13.6247 1.96806 14.031C2.37415 14.4374 2.92487 14.666 3.49934 14.6667H11.166C11.7405 14.6663 12.2913 14.438 12.6977 14.032C13.104 13.6259 13.3326 13.0751 13.3333 12.5007V7.72534C13.3333 7.54853 13.2631 7.37896 13.1381 7.25393C13.0131 7.12891 12.8435 7.05867 12.6667 7.05867Z" fill="#55A3AE"/>
</svg>
