<svg width="16" height="16" viewBox="0 0 16 16" fill="none" xmlns="http://www.w3.org/2000/svg">
<path d="M14.7854 13.6085L12.0828 10.9059C12.9019 9.83371 13.3511 8.53315 13.3513 7.16078C13.3513 5.50693 12.7072 3.95196 11.5375 2.78252C10.3681 1.61309 8.81331 0.968964 7.15926 0.968964C5.50541 0.968964 3.95044 1.61309 2.78101 2.78252C0.366862 5.19687 0.366862 9.12509 2.78101 11.539C3.95044 12.7087 5.50541 13.3528 7.15926 13.3528C8.53164 13.3526 9.83219 12.9034 10.9044 12.0843L13.607 14.7869C13.7696 14.9497 13.983 15.0311 14.1962 15.0311C14.4094 15.0311 14.6228 14.9497 14.7854 14.7869C15.1109 14.4616 15.1109 13.9338 14.7854 13.6085ZM3.95939 10.3606C2.19507 8.59632 2.19527 5.72543 3.95939 3.96091C4.81409 3.10641 5.95056 2.63563 7.15926 2.63563C8.36816 2.63563 9.50443 3.10641 10.3591 3.96091C11.2138 4.8156 11.6846 5.95208 11.6846 7.16078C11.6846 8.36968 11.2138 9.50595 10.3591 10.3606C9.50443 11.2153 8.36816 11.6861 7.15926 11.6861C5.95056 11.6861 4.81409 11.2153 3.95939 10.3606Z" fill="#8C8A98"/>
</svg>
