<svg width="14" height="14" viewBox="0 0 14 14" fill="none" xmlns="http://www.w3.org/2000/svg">
<path d="M7.47489 9.32882C7.23745 9.11999 6.85125 9.15146 6.64242 9.3889L4.43967 11.872V1.94819C4.43967 1.62207 4.17077 1.35316 3.84464 1.35316C3.51852 1.35316 3.24962 1.62207 3.24962 1.94819V11.872L1.04687 9.3889C0.809431 9.15146 0.451843 9.11999 0.214404 9.32882C-0.0230353 9.56626 -0.0545031 9.92385 0.154329 10.1613L3.39837 13.7915C3.64153 14.0919 4.07064 14.0461 4.26231 13.7915L7.53496 10.1613C7.74379 9.92671 7.71519 9.53765 7.47489 9.32882Z" fill="#8C8A98"/>
<path d="M13.8457 3.85344L10.6303 0.223197C10.3442 -0.0657347 9.98661 -0.0828989 9.73773 0.223197L6.46507 3.85344C6.25624 4.09088 6.28771 4.47707 6.52515 4.6859C6.89132 4.9777 7.26035 4.77745 7.35762 4.62583L9.56036 2.14273V12.0379C9.56036 12.364 9.82927 12.633 10.1554 12.633C10.4815 12.633 10.7504 12.3955 10.7504 12.0665V2.14559L12.9532 4.62869C13.1906 4.86613 13.5482 4.8976 13.7856 4.68876C14.0231 4.44847 14.0545 4.09088 13.8457 3.85344Z" fill="#8C8A98"/>
</svg>
