<svg width="8" height="13" viewBox="0 0 8 13" fill="none" xmlns="http://www.w3.org/2000/svg">
<path d="M0.249136 5.28241H7.75086C7.84675 5.28241 7.9338 5.22675 7.97528 5.13908C8.01687 5.05167 8.00529 4.94755 7.94576 4.87165L4.19477 0.0952572C4.14745 0.0350415 4.07584 0 4.00012 0C3.9244 0 3.85267 0.0350415 3.80547 0.0952572L0.054357 4.87165C-0.00529714 4.94768 -0.0168792 5.05167 0.0247167 5.13908C0.0661882 5.22675 0.153241 5.28241 0.249136 5.28241Z" fill="#D6D5D9"/>
<path d="M7.75073 7.71759H0.249136C0.153365 7.71759 0.0661882 7.77313 0.0247167 7.86092C-0.0168792 7.94833 -0.00529715 8.05244 0.054357 8.12822L3.80534 12.9047C3.85267 12.965 3.92428 13 4 13C4.07572 13 4.14745 12.965 4.19465 12.9047L7.94539 8.12822C8.00504 8.05219 8.0165 7.94833 7.9749 7.86092C7.93368 7.77313 7.84663 7.71759 7.75073 7.71759Z" fill="#D6D5D9"/>
</svg>
